<svg width="21" height="24" viewBox="0 0 21 24" fill="none" xmlns="http://www.w3.org/2000/svg">
<path d="M15.75 5.33333C15.75 2.39238 13.395 0 10.5 0C7.605 0 5.25 2.39238 5.25 5.33333C5.25 8.27429 7.605 10.6667 10.5 10.6667C13.395 10.6667 15.75 8.27429 15.75 5.33333ZM6.75 5.33333C6.75 3.23429 8.43375 1.52381 10.5 1.52381C12.5662 1.52381 14.25 3.23429 14.25 5.33333C14.25 7.43238 12.5662 9.14286 10.5 9.14286C8.43375 9.14286 6.75 7.43238 6.75 5.33333Z" fill="black"/>
<path d="M0 20.8152V23.2381C0 23.6571 0.3375 24 0.75 24H20.25C20.6625 24 21 23.6571 21 23.2381V20.8152C21 16.2705 17.3587 12.5714 12.885 12.5714H8.115C3.64125 12.5714 0 16.2705 0 20.8152ZM8.115 14.0952H12.885C16.5338 14.0952 19.5 17.1086 19.5 20.8152V22.4762H1.5V20.8152C1.5 17.1086 4.46625 14.0952 8.115 14.0952Z" fill="black"/>
</svg>
